<svg xmlns="http://www.w3.org/2000/svg" viewBox="0 0 100 100">
  <rect width="100" height="100" rx="20" fill="#25D366"/>
  <path d="M50 18c-17.7 0-32 13.4-32 30 0 5.7 1.7 11 4.6 15.6L18 82l19.2-5.1A34 34 0 0050 78c17.7 0 32-13.4 32-30S67.7 18 50 18z" fill="#fff"/>
  <path d="M62 53l-6-3c-.8-.4-1.8-.4-2.6.2l-2.8 2.2c-.4.3-1 .3-1.4 0l-5.6-3.4a11 11 0 01-3.9-3.9c-.3-.5-.2-1 0-1.4l2.2-2.8c.5-.7.5-1.7.2-2.5l-3-6c-.6-1.2-2.2-1.5-3.2-.5l-2.4 2.4a8 8 0 00-1 8.3c2 3.8 4.9 7 8.3 9.4a18 18 0 009.8 3.5c2.3 0 4.5-1 6-2.6l2.4-2.4c1-1 .7-2.6-.5-3.2z" fill="#25D366"/>
</svg>